
        <svg xmlns="http://www.w3.org/2000/svg" xmlns:xlink="http://www.w3.org/1999/xlink" version="1.1" width="3162.208309618669" 
        height="1012.7049814762491" viewBox="0 0 3162.208309618669 1012.7049814762491">
			
			<g transform="scale(8.11041548093341) translate(10, 10)">
				<defs id="SvgjsDefs2274"></defs><g id="SvgjsG2275" featureKey="S6ay6y-0" transform="matrix(1.29519573946012,0,0,1.29519573946012,-18.7083399459787,-9.858503143318364)" fill="#2d9e93"><g xmlns="http://www.w3.org/2000/svg"><path d="M49.322,30.268c-0.016-0.014-0.035-0.023-0.052-0.036c-0.053-0.042-0.108-0.082-0.166-0.116   c-0.026-0.016-0.053-0.03-0.08-0.044c-0.067-0.035-0.136-0.064-0.208-0.088c-0.021-0.007-0.042-0.015-0.064-0.021   c-0.077-0.022-0.155-0.037-0.234-0.047c-0.023-0.002-0.046-0.006-0.069-0.008c-0.068-0.005-0.137-0.003-0.206,0.001   c-0.026,0.001-0.052-0.002-0.079,0c-0.016,0.002-0.031,0.008-0.047,0.01c-0.018,0.003-0.036,0.001-0.054,0.005   c-0.037,0.007-0.071,0.021-0.107,0.031c-0.046,0.012-0.094,0.023-0.138,0.04c-0.054,0.02-0.105,0.045-0.156,0.071   c-0.038,0.02-0.077,0.038-0.114,0.06c-0.051,0.032-0.099,0.069-0.146,0.107c-0.031,0.025-0.063,0.047-0.092,0.074   c-0.049,0.046-0.092,0.099-0.135,0.151c-0.018,0.021-0.04,0.04-0.056,0.062L14.728,75.425c-0.291,0.403-0.363,0.924-0.193,1.392   c0.17,0.467,0.561,0.819,1.042,0.94L58.238,88.53c0.119,0.03,0.24,0.045,0.36,0.045c0.002,0,0.003,0.001,0.005,0.001h0.001h0.001   c0.001,0,0.001,0,0.002,0c0.089-0.001,0.179-0.008,0.271-0.024c0.067-0.013,0.125-0.044,0.188-0.064   c0.049-0.017,0.096-0.028,0.142-0.049c0.16-0.071,0.31-0.16,0.433-0.278c0.001-0.002,0.004-0.002,0.006-0.004l0.007-0.006   l0.005-0.005l25.439-24.538c0.303-0.292,0.469-0.697,0.459-1.118c-0.011-0.42-0.197-0.816-0.515-1.093L49.322,30.268z    M59.574,84.058l-8.983-48.704l31.247,27.229L59.574,84.058z M18.453,75.389l29.046-40.264l9.208,49.925L18.453,75.389z"></path><path d="M25.126,25.1l8.698,6.127c0.263,0.185,0.564,0.274,0.862,0.274c0.472,0,0.936-0.222,1.228-0.636   c0.477-0.677,0.315-1.613-0.362-2.09l-8.698-6.127c-0.678-0.478-1.613-0.314-2.09,0.362C24.287,23.688,24.449,24.623,25.126,25.1z"></path><path d="M38.543,24.487c0.29,0.432,0.764,0.665,1.248,0.665c0.287,0,0.577-0.082,0.833-0.254c0.688-0.461,0.872-1.393,0.411-2.081   L34.303,12.77c-0.461-0.688-1.394-0.873-2.081-0.411c-0.688,0.461-0.872,1.393-0.411,2.081L38.543,24.487z"></path><path d="M56.85,25.285c0.168,0.061,0.34,0.09,0.51,0.09c0.613,0,1.189-0.38,1.41-0.99l3.795-10.491   c0.282-0.779-0.121-1.639-0.9-1.921c-0.775-0.281-1.638,0.121-1.92,0.9l-3.795,10.491C55.667,24.143,56.07,25.003,56.85,25.285z"></path><path d="M61.474,31.017c0.296,0.322,0.699,0.485,1.104,0.485c0.363,0,0.727-0.131,1.015-0.396l9.066-8.331   c0.61-0.561,0.65-1.509,0.09-2.119c-0.561-0.611-1.51-0.65-2.119-0.09l-9.066,8.331C60.953,29.458,60.913,30.406,61.474,31.017z"></path><path d="M46.071,20.821c0.088,0.765,0.737,1.328,1.488,1.328c0.058,0,0.115-0.003,0.174-0.01c0.823-0.095,1.413-0.839,1.318-1.662   L47.721,8.94c-0.095-0.823-0.845-1.415-1.662-1.318c-0.823,0.095-1.413,0.839-1.318,1.662L46.071,20.821z"></path></g></g><g id="SvgjsG2276" featureKey="j5pGhi-0" transform="matrix(3.790498958805084,0,0,3.790498958805084,105.33706054269499,-2.4356033552423924)" fill="#111111"><path d="M1.7578 4.941000000000001 l8.3008 0 l0 1.4258 l-6.8555 0 l0 4.5313 l4.1797 0 l0 1.4063 l-4.1797 0 l0 5.6836 l6.7969 0 l0 1.4355 l-8.2422 0 l0 -14.482 z M12.509809375 8.477 l1.3867 0 l0 5 q0 1.8359375 0.1953125 2.51953125 q0.29296875 0.986328125 1.123046875 1.557617188 t1.9922 0.57129 q1.15234375 0 1.953125 -0.556640625 t1.1035 -1.4648 q0.21484375 -0.615234375 0.21484375 -2.626953125 l0 -5 l1.4063 0 l0 5.2637 q0 2.216796875 -0.5224609375 3.334960938 t-1.5576 1.748 t-2.5977 0.62988 q-1.572265625 0 -2.6171875 -0.6298828125 t-1.5625 -1.7676 t-0.51758 -3.4229 l0 -5.1563 z M24.4043375 14.541 l0 -1.2891 q0.15625 -0.966796875 0.44921875 -1.572265625 q0.68359375 -1.6796875 1.8359375 -2.4609375 t1.9141 -0.78125 q0.56640625 0 1.2109375 0.37109375 l-0.71289 1.1523 q-0.908203125 -0.33203125 -1.801757813 0.537109375 t-1.2354 1.8945 q-0.25390625 0.908203125 -0.25390625 3.408203125 l0 3.623 l-1.4063 0 l0 -4.8828 z M39.638796875 15.6348 l1.1523 0.61523 q-0.556640625 1.123046875 -1.30859375 1.806640625 t-1.6895 1.04 t-2.1191 0.35645 q-2.6171875 0 -4.091796875 -1.713867188 t-1.4746 -3.8721 q0 -2.041015625 1.25 -3.6328125 q1.58203125 -2.03125 4.248046875 -2.03125 q2.724609375 0 4.365234375 2.080078125 q1.162109375 1.46484375 1.171875 3.65234375 l-9.6191 0 q0.0390625 1.875 1.19140625 3.071289063 t2.8418 1.1963 q0.8203125 0 1.591796875 -0.2880859375 t1.3135 -0.75684 t1.1768 -1.5234 z M39.638796875 12.7539 q-0.2734375 -1.103515625 -0.80078125 -1.762695313 t-1.3965 -1.0645 t-1.8262 -0.40527 q-1.572265625 0 -2.705078125 1.015625 q-0.8203125 0.7421875 -1.240234375 2.216796875 l7.9688 0 z M43.691434375 4.59 l1.3867 0 l0 8.457 l4.9512 -4.3164 l2.0313 0 l-4.4824 4.0723 l4.8242 6.6406 l-1.9531 0 l-4.2188 -5.7617 l-1.1523 0.94727 l0 4.8145 l-1.3867 0 l0 -14.854 z M58.87695625 8.203 q2.470703125 0 4.1015625 1.787109375 q1.50390625 1.630859375 1.50390625 3.876953125 q0.01953125 5.546875 0 5.634765625 l-1.4551 0 l0 -2.4316 q-1.142578125 2.12890625 -4.150390625 2.3828125 q-2.4609375 0 -4.018554688 -1.674804688 t-1.5576 -3.9111 q0 -2.2265625 1.474609375 -3.8671875 q1.630859375 -1.796875 4.1015625 -1.796875 z M58.87695625 9.551 q-1.708984375 0 -2.939453125 1.26953125 t-1.2305 3.0664 q0 1.162109375 0.6298828125 2.236328125 t2.1338 1.8164 q3.76953125 0.83984375 5.361328125 -3.427734375 q0.087890625 -1.3671875 -0.29296875 -2.6171875 q-0.2734375 -0.56640625 -0.751953125 -1.07421875 q-1.201171875 -1.26953125 -2.91015625 -1.26953125 z M69.2871 4.336 l0 11.23 l-1.4355 0 l0 -11.23 l1.4355 0 z M68.584 17.0215 q0.498046875 0 0.8544921875 0.3564453125 t0.35645 0.86426 q0 0.498046875 -0.3564453125 0.8544921875 t-0.85449 0.35645 q-0.5078125 0 -0.859375 -0.3564453125 t-0.35156 -0.85449 q0 -0.5078125 0.3515625 -0.8642578125 t0.85938 -0.35645 z"></path></g><g id="SvgjsG2277" featureKey="sloganFeature-0" transform="matrix(0.7316162747293766,0,0,0.7316162747293766,110.53676745054125,76.75662616474854)" fill="#111111"><path d="M2 20 l0 -14 l9.1 0 l0 0.9 l-0.4 0.4 l-7.2 0 l0 4.9 l5.7 0 l0 1.3 l-5.7 0 l0 5.2 l7.6 0 l0 1.3 l-9.1 0 z M17.5 11.8 l0.1 0 l3.6 -5.8 l1.5 0 l0 0.6 l-4 6.2 l4.4 6.6 l0 0.6 l-1.5 0 l-4 -6.1 l-0.1 0 l-4 6.1 l-1.5 0 l0 -0.6 l4.4 -6.6 l-4 -6.2 l0 -0.6 l1.5 0 z M26.900000000000002 20 l-1.5 0 l0 -14 l6.2 0 c2.1 0 3.5 1.4 3.5 3.3 l0 2.7 c0 1.9 -1.4 3.3 -3.5 3.3 l-4.7 0 l0 4.7 z M31.6 7.300000000000001 l-4.7 0 l0 6.7 l4.7 0 c1.1 0 2 -0.9 2 -2 l0 -2.7 c0 -1.1 -0.9 -2 -2 -2 z M38.1 6 l1.5 0 l0 12.7 l7.5 0 l0 1.3 l-9 0 l0 -14 z M48.900000000000006 16.9 l0 -7.8 c0 -1.9 1.4 -3.3 3.5 -3.3 l3.5 0 c2.1 0 3.5 1.4 3.5 3.3 l0 7.8 c0 1.9 -1.4 3.3 -3.5 3.3 l-3.5 0 c-2.1 0 -3.5 -1.4 -3.5 -3.3 z M57.900000000000006 16.9 l0 -7.8 c0 -1.1 -0.9 -2 -2 -2 l-3.5 0 c-1.1 0 -2 0.9 -2 2 l0 7.8 c0 1.1 0.9 2 2 2 l3.5 0 c1.1 0 2 -0.9 2 -2 z M64.5 20 l-1.5 0 l0 -14 l6.2 0 c2.1 0 3.5 1.4 3.5 3.3 l0 1.9 c0 2.8 -2.7 3.2 -2.7 3.2 l3.1 5 l0 0.6 l-1.5 0 l-3.1 -5.5 l-4 0 l0 5.5 z M69.2 7.300000000000001 l-4.7 0 l0 5.9 l4.7 0 c1.1 0 2 -0.9 2 -2 l0 -1.9 c0 -1.1 -0.9 -2 -2 -2 z M76.10000000000001 20 l0 -14 l9.1 0 l0 0.9 l-0.4 0.4 l-7.2 0 l0 4.9 l5.7 0 l0 1.3 l-5.7 0 l0 5.2 l7.6 0 l0 1.3 l-9.1 0 z M87.00000000000001 18.1 l1.5 0 l0 1.9 l-1.5 0 l0 -1.9 z M96.50000000000001 20 l0 -14 l9.1 0 l0 0.9 l-0.4 0.4 l-7.2 0 l0 4.9 l5.7 0 l0 1.3 l-5.7 0 l0 5.2 l7.6 0 l0 1.3 l-9.1 0 z M116.40000000000002 20 l-6.8 -11.5 l-0.1 0 l0.2 2.6 l0 8.9 l-1.5 0 l0 -14 l1.6 0 l6.8 11.5 l0.1 0 l-0.2 -2.6 l0 -8.9 l1.5 0 l0 14 l-1.6 0 z M127.70000000000002 6 l0 10.9 c0 1.9 -1.4 3.3 -3.5 3.3 l-4 0 l0 -1.3 l4 0 c1.1 0 2 -0.9 2 -2 l0 -10.9 l1.5 0 z M131.3 16.9 l0 -7.8 c0 -1.9 1.4 -3.3 3.5 -3.3 l3.5 0 c2.1 0 3.5 1.4 3.5 3.3 l0 7.8 c0 1.9 -1.4 3.3 -3.5 3.3 l-3.5 0 c-2.1 0 -3.5 -1.4 -3.5 -3.3 z M140.3 16.9 l0 -7.8 c0 -1.1 -0.9 -2 -2 -2 l-3.5 0 c-1.1 0 -2 0.9 -2 2 l0 7.8 c0 1.1 0.9 2 2 2 l3.5 0 c1.1 0 2 -0.9 2 -2 z M149.8 15.7 l0 4.3 l-1.5 0 l0 -4.3 l-4.7 -9.1 l0 -0.6 l1.5 0 l3.9 8.1 l0.1 0 l3.9 -8.1 l1.5 0 l0 0.6 z M155.9 18.1 l1.5 0 l0 1.9 l-1.5 0 l0 -1.9 z M165.40000000000003 6 l1.5 0 l0 12.7 l7.5 0 l0 1.3 l-9 0 l0 -14 z M176.60000000000002 20 l0 -14 l9.1 0 l0 0.9 l-0.4 0.4 l-7.2 0 l0 4.9 l5.7 0 l0 1.3 l-5.7 0 l0 5.2 l7.6 0 l0 1.3 l-9.1 0 z M189.3 16.4 l-1.2 3.6 l-1.5 0 l0 -0.6 l4.9 -13.4 l1.7 0 l4.9 13.4 l0 0.6 l-1.5 0 l-1.2 -3.6 l-6.1 0 z M194.9 15.1 l-2.5 -7.3 l-0.1 0 l-2.5 7.3 l5.1 0 z M201.9 20 l-1.5 0 l0 -14 l6.2 0 c2.1 0 3.5 1.4 3.5 3.3 l0 1.9 c0 2.8 -2.7 3.2 -2.7 3.2 l3.1 5 l0 0.6 l-1.5 0 l-3.1 -5.5 l-4 0 l0 5.5 z M206.6 7.300000000000001 l-4.7 0 l0 5.9 l4.7 0 c1.1 0 2 -0.9 2 -2 l0 -1.9 c0 -1.1 -0.9 -2 -2 -2 z M221.7 20 l-6.8 -11.5 l-0.1 0 l0.2 2.6 l0 8.9 l-1.5 0 l0 -14 l1.6 0 l6.8 11.5 l0.1 0 l-0.2 -2.6 l0 -8.9 l1.5 0 l0 14 l-1.6 0 z M226.5 18.1 l1.5 0 l0 1.9 l-1.5 0 l0 -1.9 z M244.90000000000003 18.7 l0 1.3 l-5.8 0 c-2.1 0 -3.5 -1.4 -3.5 -3.3 l0 -7.4 c0 -1.9 1.4 -3.3 3.5 -3.3 l5.8 0 l0 0.9 l-0.4 0.4 l-5.4 0 c-1.1 0 -2 0.9 -2 2 l0 7.4 c0 1.1 0.9 2 2 2 l5.8 0 z M247.20000000000002 16.9 l0 -7.8 c0 -1.9 1.4 -3.3 3.5 -3.3 l3.5 0 c2.1 0 3.5 1.4 3.5 3.3 l0 7.8 c0 1.9 -1.4 3.3 -3.5 3.3 l-3.5 0 c-2.1 0 -3.5 -1.4 -3.5 -3.3 z M256.20000000000005 16.9 l0 -7.8 c0 -1.1 -0.9 -2 -2 -2 l-3.5 0 c-1.1 0 -2 0.9 -2 2 l0 7.8 c0 1.1 0.9 2 2 2 l3.5 0 c1.1 0 2 -0.9 2 -2 z M269.5 20 l-6.8 -11.5 l-0.1 0 l0.2 2.6 l0 8.9 l-1.5 0 l0 -14 l1.6 0 l6.8 11.5 l0.1 0 l-0.2 -2.6 l0 -8.9 l1.5 0 l0 14 l-1.6 0 z M279.20000000000005 7.300000000000001 l0 12.7 l-1.5 0 l0 -12.7 l-4.4 0 l0 -1.3 l10.3 0 l0 0.9 l-0.4 0.4 l-4 0 z M287.3 20 l-1.5 0 l0 -14 l6.2 0 c2.1 0 3.5 1.4 3.5 3.3 l0 1.9 c0 2.8 -2.7 3.2 -2.7 3.2 l3.1 5 l0 0.6 l-1.5 0 l-3.1 -5.5 l-4 0 l0 5.5 z M292 7.300000000000001 l-4.7 0 l0 5.9 l4.7 0 c1.1 0 2 -0.9 2 -2 l0 -1.9 c0 -1.1 -0.9 -2 -2 -2 z M300.40000000000003 20 l-1.5 0 l0 -14 l1.5 0 l0 14 z M310.90000000000003 13.4 l-5 0 l0 5.3 l5 0 c1.1 0 2 -0.9 2 -2 l0 -1.3 c0 -1.1 -0.9 -2 -2 -2 z M312.00000000000006 12.5 l0 0.1 s2.4 0.4 2.4 2.8 l0 1.3 c0 1.9 -1.4 3.3 -3.5 3.3 l-6.5 0 l0 -14 l5.8 0 c2.1 0 3.5 1.4 3.5 3.3 l0 0.8 c0 2 -1.7 2.4 -1.7 2.4 z M310.20000000000005 7.300000000000001 l-4.3 0 l0 4.8 l4.3 0 c1.1 0 2 -0.9 2 -2 l0 -0.8 c0 -1.1 -0.9 -2 -2 -2 z M323.90000000000003 20.2 l-3 0 c-2.1 0 -3.5 -1.4 -3.5 -3.3 l0 -10.9 l1.5 0 l0 10.9 c0 1.1 0.9 2 2 2 l3 0 c1.1 0 2 -0.9 2 -2 l0 -10.9 l1.5 0 l0 10.9 c0 1.9 -1.4 3.3 -3.5 3.3 z M335.50000000000006 7.300000000000001 l0 12.7 l-1.5 0 l0 -12.7 l-4.4 0 l0 -1.3 l10.3 0 l0 0.9 l-0.4 0.4 l-4 0 z M342.1 20 l0 -14 l9.1 0 l0 0.9 l-0.4 0.4 l-7.2 0 l0 4.9 l5.7 0 l0 1.3 l-5.7 0 l0 5.2 l7.6 0 l0 1.3 l-9.1 0 z M353 18.1 l1.5 0 l0 1.9 l-1.5 0 l0 -1.9 z"></path></g>
			</g>
		</svg>
	